<?xml version="1.0" standalone="no"?>
<!DOCTYPE svg PUBLIC "-//W3C//DTD SVG 20010904//EN"
 "http://www.w3.org/TR/2001/REC-SVG-20010904/DTD/svg10.dtd">
 <svg version="1.0" xmlns="http://www.w3.org/2000/svg" width="70px" height="70px"
              viewBox="0 0 500.000000 500.000000" preserveAspectRatio="xMidYMid meet">
              <metadata>
                Created by potrace 1.16, written by Peter Selinger 2001-2019
              </metadata>
              <g transform="translate(0.000000,500.000000) scale(0.100000,-0.100000)" fill="#000000" stroke="none">
                <path style="fill: #c95243" d="M2111 3953 c-216 -526 -394 -963 -395 -970 -1 -7 -7 -18 -13 -24 -10
            -10 -272 178 -1139 819 -84 62 -154 112 -158 112 -3 0 -6 -177 -6 -392 l1
            -393 524 -375 c289 -206 525 -377 525 -380 0 -3 -37 -95 -83 -205 l-82 -200
            -443 -3 -442 -2 2 -313 3 -312 308 -3 c169 -1 307 -6 307 -10 -1 -4 -92 -227
            -204 -497 -111 -269 -201 -493 -199 -497 2 -5 152 -8 333 -8 l329 0 14 28 c8
            15 98 241 201 503 l188 476 67 7 c82 7 1056 6 1360 -3 l224 -6 197 -500 197
            -500 328 -3 c181 -1 332 1 336 5 4 5 -84 231 -196 503 l-203 495 289 3 289 2
            0 315 0 315 -418 0 -419 0 -88 212 c-60 148 -84 217 -78 227 5 8 233 174 506
            370 l497 356 0 393 c0 215 -3 392 -6 392 -3 0 -284 -205 -624 -455 -341 -250
            -623 -455 -627 -455 -7 0 -250 587 -692 1673 -58 141 -107 257 -111 257 -3 0
            -182 -431 -399 -957z m564 0 c87 -214 225 -550 306 -748 102 -248 145 -363
            138 -371 -16 -20 -119 -88 -124 -82 -4 4 -368 926 -456 1155 -13 34 -27 59
            -31 55 -3 -4 -115 -281 -248 -617 -133 -335 -244 -614 -247 -618 -6 -9 -40 11
            -100 60 -40 32 -42 36 -29 56 7 12 150 354 316 760 167 405 307 737 310 737 4
            0 78 -174 165 -387z m-1957 -555 c53 -39 306 -225 562 -413 256 -188 629 -462
            830 -610 200 -148 369 -268 375 -268 5 0 208 145 450 323 1044 768 1416 1040
            1421 1040 2 0 3 -57 2 -126 l-3 -127 -300 -215 c-165 -119 -556 -399 -868
            -624 l-569 -408 -130 0 -131 0 -431 308 c-237 170 -630 452 -873 626 l-443
            317 0 125 c0 68 3 124 6 124 3 0 49 -32 102 -72z m1946 -397 c81 -209 147
            -384 145 -390 -2 -5 -69 -58 -149 -117 -80 -59 -146 -111 -148 -115 -8 -21
            -43 -2 -179 97 -108 80 -143 111 -138 123 50 133 311 781 315 781 3 0 72 -171
            154 -379z m759 -873 c25 -62 53 -130 62 -151 l16 -38 -97 3 -96 3 -39 99 c-21
            55 -37 101 -36 102 1 0 31 22 67 48 35 25 67 46 71 46 4 0 27 -51 52 -112z
            m-1710 38 c31 -22 57 -45 57 -50 -1 -6 -16 -47 -34 -91 l-32 -80 -92 -3 c-51
            -1 -92 0 -92 3 0 3 21 56 46 118 26 62 50 122 55 135 10 26 8 27 92 -32z
            m2647 -541 l0 -95 -27 -1 c-204 -5 -3494 -8 -3590 -4 l-133 7 0 94 0 94 1875
            0 1875 0 0 -95z m-2913 -327 c-3 -7 -71 -182 -152 -388 -81 -206 -152 -381
            -158 -388 -7 -9 -36 -12 -104 -10 -51 2 -94 6 -96 10 -1 4 70 183 158 397
            l160 391 99 0 c74 0 97 -3 93 -12z m2336 -50 c14 -35 87 -211 161 -393 75
            -181 136 -333 136 -337 0 -5 -45 -8 -100 -8 -84 0 -101 3 -109 18 -5 9 -67
            166 -139 347 -71 182 -139 354 -151 383 l-21 52 99 0 99 0 25 -62z" />
              </g>
            </svg>
