<?xml version="1.0" standalone="no"?>
<!DOCTYPE svg PUBLIC "-//W3C//DTD SVG 20010904//EN"
 "http://www.w3.org/TR/2001/REC-SVG-20010904/DTD/svg10.dtd">
<svg version="1.0" xmlns="http://www.w3.org/2000/svg"
 width="700.000000pt" height="588.000000pt" viewBox="0 0 700.000000 588.000000"
 preserveAspectRatio="xMidYMid meet">

<g transform="translate(0.000000,588.000000) scale(0.100000,-0.100000)"
fill="#000000" stroke="none">
<path d="M3376 5508 c-26 -25 -328 -415 -346 -447 -37 -70 37 -151 111 -122
14 5 61 56 104 113 43 56 82 108 88 113 17 18 1 -372 -18 -439 -59 -212 -197
-309 -505 -356 -36 -5 -155 -16 -265 -25 -482 -36 -662 -92 -826 -254 -88 -88
-143 -189 -180 -331 -21 -81 -23 -108 -26 -572 -3 -354 -1 -493 7 -508 6 -12
27 -28 45 -36 39 -16 69 -8 100 26 19 21 20 40 26 509 6 530 6 535 68 666 55
116 140 189 279 239 98 35 213 52 467 71 372 27 514 54 665 128 61 30 103 60
151 107 80 79 119 147 155 265 25 82 27 108 32 303 l4 213 72 -93 c39 -51 83
-105 98 -120 70 -73 201 10 156 99 -17 35 -322 431 -350 456 -29 24 -82 22
-112 -5z"/>
<path d="M1273 5274 c-44 -22 -73 -71 -73 -123 0 -55 10 -74 81 -146 l59 -61
-56 -54 c-66 -65 -84 -96 -84 -145 0 -87 56 -145 140 -145 52 0 74 12 150 86
l56 54 54 -56 c67 -67 96 -84 151 -84 104 0 171 109 123 203 -9 18 -43 56 -76
86 l-59 54 54 56 c70 71 91 112 84 163 -13 96 -103 151 -194 117 -15 -5 -55
-37 -89 -70 l-61 -61 -49 56 c-27 30 -63 62 -79 70 -38 20 -91 20 -132 0z"/>
<path d="M5323 4881 c-42 -39 -352 -450 -358 -474 -15 -58 56 -121 113 -101
23 8 51 39 174 195 l27 34 -2 -1365 c-3 -1348 -3 -1366 -24 -1455 -52 -223
-122 -356 -258 -490 -132 -131 -288 -213 -510 -269 -168 -42 -316 -57 -654
-63 -305 -6 -314 -7 -339 -28 -36 -31 -36 -86 1 -123 l27 -27 203 -3 c235 -4
546 11 673 33 381 66 649 216 837 468 94 125 171 319 210 527 21 113 22 134
27 1453 l5 1339 80 -103 c44 -57 92 -110 106 -118 52 -29 129 19 129 81 0 27
-28 70 -165 248 -91 118 -177 225 -191 238 -31 28 -83 29 -111 3z"/>
<path d="M3723 4091 c-49 -23 -73 -62 -73 -120 0 -58 12 -81 76 -150 l57 -62
-55 -57 c-67 -69 -78 -88 -78 -142 0 -69 34 -117 99 -139 55 -18 105 1 177 71
l63 60 67 -61 c72 -66 120 -86 170 -72 49 14 74 34 95 73 39 75 19 129 -77
216 l-69 62 69 69 c60 60 69 74 73 113 10 89 -49 158 -135 158 -58 0 -90 -19
-151 -87 l-51 -57 -52 58 c-77 86 -126 102 -205 67z"/>
<path d="M2395 3496 c-52 -22 -85 -71 -85 -122 0 -58 10 -76 81 -149 l59 -61
-56 -54 c-68 -67 -84 -96 -84 -152 0 -73 43 -123 123 -142 41 -10 103 23 167
88 l54 56 66 -64 c37 -36 80 -69 100 -75 63 -20 141 16 166 74 32 77 15 125
-76 209 l-62 57 66 69 c46 49 67 80 72 106 14 77 -37 156 -111 170 -53 10
-104 -14 -171 -78 l-62 -59 -53 57 c-76 80 -128 99 -194 70z"/>
<path d="M1453 2396 c-148 -55 -253 -187 -276 -348 -21 -147 40 -297 160 -394
171 -139 440 -118 585 46 208 234 114 600 -180 699 -86 29 -206 28 -289 -3z
m242 -215 c79 -37 115 -95 115 -187 0 -66 -25 -120 -75 -162 -86 -70 -188 -67
-271 10 -114 105 -79 289 66 347 41 16 122 12 165 -8z"/>
<path d="M2665 2403 c-121 -44 -205 -118 -258 -231 -30 -63 -32 -74 -32 -182
0 -110 1 -118 33 -183 134 -273 494 -331 701 -112 203 215 140 558 -126 686
-61 29 -79 33 -168 36 -77 3 -112 -1 -150 -14z m220 -222 c52 -23 101 -80 116
-133 40 -151 -106 -300 -255 -258 -158 44 -208 241 -89 351 65 61 150 76 228
40z"/>
<path d="M3852 2402 c-214 -76 -333 -299 -277 -515 21 -81 50 -132 107 -194
205 -216 567 -156 700 114 32 65 33 73 33 183 0 109 -2 119 -32 182 -44 94
-109 160 -201 206 -70 34 -83 37 -176 40 -79 2 -113 -2 -154 -16z m260 -239
c143 -104 103 -325 -68 -373 -114 -32 -237 50 -259 173 -15 81 40 181 119 219
63 29 153 21 208 -19z"/>
<path d="M2690 1216 c-123 -33 -225 -117 -281 -232 -33 -66 -34 -73 -34 -184
0 -109 2 -119 32 -182 44 -94 109 -160 202 -206 73 -36 77 -37 190 -37 111 0
119 1 183 33 222 109 309 367 197 590 -33 66 -114 149 -177 181 -94 48 -219
63 -312 37z m193 -219 c65 -28 127 -121 127 -192 0 -83 -71 -176 -153 -200
-65 -19 -117 -11 -175 29 -130 88 -120 280 19 353 49 27 131 31 182 10z"/>
</g>
</svg>
