<?xml version="1.0" standalone="no"?>
<!DOCTYPE svg PUBLIC "-//W3C//DTD SVG 20010904//EN"
 "http://www.w3.org/TR/2001/REC-SVG-20010904/DTD/svg10.dtd">
<svg version="1.0" xmlns="http://www.w3.org/2000/svg"
 width="500.000000pt" height="500.000000pt" viewBox="0 0 500.000000 500.000000"
 preserveAspectRatio="xMidYMid meet">

<g transform="translate(0.000000,500.000000) scale(0.100000,-0.100000)"
fill="#000000" stroke="none">
<path d="M575 4815 l-25 -24 0 -2291 0 -2291 25 -24 24 -25 1901 0 1901 0 24
25 25 24 0 2291 0 2291 -25 24 -24 25 -1901 0 -1901 0 -24 -25z m3723 -2002
l-3 -1878 -1795 0 -1795 0 -3 1878 -2 1877 1800 0 1800 0 -2 -1877z m-1041
-2076 c-14 -23 -30 -59 -37 -79 l-12 -38 -79 0 -79 0 0 -75 0 -75 545 0 545 0
0 75 0 75 -83 0 -84 0 -12 43 c-7 23 -21 57 -32 75 -10 18 -19 35 -19 38 0 2
88 4 195 4 l195 0 0 -235 0 -235 -1800 0 -1800 0 0 235 0 235 1290 0 1291 0
-24 -43z m442 17 c51 -26 111 -91 111 -121 0 -10 -42 -13 -220 -13 l-220 0 19
38 c56 110 195 153 310 96z"/>
<path d="M1013 4514 c-92 -33 -162 -145 -149 -240 31 -232 335 -287 439 -79
45 91 28 186 -47 260 -73 73 -150 91 -243 59z m132 -159 c49 -48 15 -135 -53
-135 -38 0 -82 41 -82 75 0 35 50 85 85 85 14 0 37 -11 50 -25z"/>
<path d="M3850 4521 c-50 -15 -89 -41 -123 -82 -126 -146 -17 -373 178 -372
206 0 309 246 164 392 -59 58 -147 84 -219 62z m111 -170 c37 -37 38 -74 3
-106 -78 -72 -184 36 -109 110 33 33 70 32 106 -4z"/>
<path d="M2340 4444 c-304 -38 -595 -150 -810 -312 -131 -99 -308 -280 -382
-393 -66 -99 -164 -299 -203 -413 -111 -328 -110 -690 1 -1026 32 -95 112
-269 166 -360 45 -77 137 -190 228 -280 505 -505 1258 -630 1884 -314 518 261
844 735 907 1319 48 447 -128 952 -443 1273 -261 266 -529 412 -884 482 -106
21 -377 35 -464 24z m452 -174 c317 -67 625 -246 824 -478 329 -385 446 -871
324 -1348 -109 -422 -418 -794 -813 -979 -53 -25 -101 -45 -106 -45 -5 0 -22
-5 -38 -12 -41 -16 -38 -16 -163 -43 -151 -33 -174 -35 -315 -36 -115 0 -216
10 -308 30 -23 6 -53 12 -67 15 -14 2 -44 11 -67 20 -24 8 -43 13 -43 9 0 -3
-6 -1 -12 4 -7 6 -31 16 -53 23 -221 70 -536 324 -688 555 -115 174 -185 342
-228 545 -32 150 -32 399 -1 555 129 651 643 1124 1312 1209 83 10 347 -4 442
-24z"/>
<path d="M2190 3985 l0 -75 75 0 75 0 0 75 0 75 -75 0 -75 0 0 -75z"/>
<path d="M2660 3985 l0 -75 75 0 75 0 0 75 0 75 -75 0 -75 0 0 -75z"/>
<path d="M1960 3675 l0 -75 75 0 75 0 0 75 0 75 -75 0 -75 0 0 -75z"/>
<path d="M2427 3744 c-4 -4 -7 -38 -7 -76 l0 -68 80 0 81 0 -3 73 -3 72 -70 3
c-39 1 -74 0 -78 -4z"/>
<path d="M2890 3675 l0 -75 75 0 75 0 0 75 0 75 -75 0 -75 0 0 -75z"/>
<path d="M2190 3358 l0 -78 75 0 75 0 0 78 0 77 -75 0 -75 0 0 -77z"/>
<path d="M2660 3358 l0 -78 75 0 75 0 0 78 0 77 -75 0 -75 0 0 -77z"/>
<path d="M1640 3355 l0 -75 75 0 75 0 0 75 0 75 -75 0 -75 0 0 -75z"/>
<path d="M3210 3355 l0 -75 75 0 75 0 0 75 0 75 -75 0 -75 0 0 -75z"/>
<path d="M1330 3045 l0 -75 43 0 c42 0 44 -1 65 -47 32 -72 76 -119 140 -150
49 -24 69 -28 142 -28 69 0 94 4 134 24 64 32 113 82 143 148 24 52 25 53 69
53 l44 0 0 75 0 75 -93 0 c-85 0 -96 -2 -115 -23 -12 -13 -22 -36 -22 -50 0
-45 -25 -93 -66 -123 -31 -24 -47 -29 -95 -29 -87 0 -141 48 -158 138 -14 78
-28 87 -138 87 l-93 0 0 -75z"/>
<path d="M2420 3045 l0 -75 80 0 80 0 0 75 0 75 -80 0 -80 0 0 -75z"/>
<path d="M2890 3045 l0 -75 44 0 c44 0 45 -1 69 -53 30 -66 85 -123 146 -151
65 -30 197 -29 262 1 62 28 120 88 149 152 23 50 24 51 67 51 l43 0 0 75 0 75
-93 0 c-110 0 -124 -9 -138 -87 -17 -90 -71 -138 -158 -138 -48 0 -64 5 -95
29 -41 31 -66 78 -66 124 0 17 -9 37 -23 50 -20 19 -35 22 -115 22 l-92 0 0
-75z"/>
<path d="M2190 2735 l0 -75 75 0 75 0 0 75 0 75 -75 0 -75 0 0 -75z"/>
<path d="M2660 2735 l0 -75 75 0 75 0 0 75 0 75 -75 0 -75 0 0 -75z"/>
<path d="M1410 2425 l0 -75 75 0 75 0 0 75 0 75 -75 0 -75 0 0 -75z"/>
<path d="M1880 2425 l0 -75 75 0 75 0 0 75 0 75 -75 0 -75 0 0 -75z"/>
<path d="M2427 2494 c-4 -4 -7 -38 -7 -76 l0 -68 80 0 81 0 -3 73 -3 72 -70 3
c-39 1 -74 0 -78 -4z"/>
<path d="M2970 2425 l0 -75 75 0 75 0 0 75 0 75 -75 0 -75 0 0 -75z"/>
<path d="M3440 2425 l0 -75 75 0 75 0 0 75 0 75 -75 0 -75 0 0 -75z"/>
<path d="M2188 2182 l-78 -3 0 -74 0 -75 45 0 c44 0 45 -1 65 -48 26 -61 90
-124 155 -154 70 -32 180 -31 251 0 63 29 126 92 154 155 20 46 22 47 65 47
l45 0 0 75 0 75 -77 2 c-43 0 -87 0 -98 -1 -28 -2 -55 -38 -55 -72 0 -47 -25
-94 -66 -125 -31 -24 -47 -29 -94 -29 -47 0 -63 5 -94 29 -41 31 -66 78 -66
123 0 33 -27 69 -55 75 -11 2 -55 2 -97 0z"/>
<path d="M1640 2105 l0 -75 75 0 75 0 0 75 0 75 -75 0 -75 0 0 -75z"/>
<path d="M3210 2105 l0 -75 75 0 75 0 0 75 0 75 -75 0 -75 0 0 -75z"/>
<path d="M1960 1715 l0 -75 75 0 75 0 0 75 0 75 -75 0 -75 0 0 -75z"/>
<path d="M2890 1715 l0 -75 75 0 75 0 0 75 0 75 -75 0 -75 0 0 -75z"/>
<path d="M867 1801 c-74 -43 -74 -43 -36 -103 92 -145 284 -352 426 -461 100
-76 338 -217 348 -205 8 9 66 130 63 133 -2 1 -31 16 -64 33 -157 79 -362 238
-486 378 -80 90 -83 95 -141 182 -26 39 -50 72 -55 72 -4 0 -29 -13 -55 -29z"/>
<path d="M4014 1745 c-55 -83 -216 -258 -282 -306 -19 -13 -39 -29 -45 -34
-31 -28 -215 -136 -315 -185 -62 -30 -112 -60 -112 -66 0 -16 48 -124 56 -124
11 0 230 104 279 133 136 80 238 159 355 277 120 120 241 272 244 307 1 14
-95 83 -116 83 -5 0 -33 -38 -64 -85z"/>
</g>
</svg>
